<svg width="460" height="20" viewBox="0 0 460 20" fill="none" xmlns="http://www.w3.org/2000/svg">
    <path d="M11.5925 2.79956V18.2834M3.85059 3.69979H5.54644" stroke="black"/>
    <path d="M1.5 15.879V1H9.38991C10.711 1 11.5917 1.54435 11.5917 2.81452C11.5917 1.54435 12.3257 1 13.7936 1H21.5V15.879H13.7936C12.1422 15.879 11.5917 17.5121 11.5917 18.4194C11.5917 17.5121 10.8578 15.879 9.02294 15.879H1.5Z" stroke="black"/>
    <path d="M34.5925 2.79956V18.2834M26.8506 3.69979H30.4579" stroke="black"/>
    <path d="M24.5 15.879V1H32.3899C33.711 1 34.5917 1.54435 34.5917 2.81452C34.5917 1.54435 35.3257 1 36.7936 1H44.5V15.879H36.7936C35.1422 15.879 34.5917 17.5121 34.5917 18.4194C34.5917 17.5121 33.8578 15.879 32.0229 15.879H24.5Z" stroke="black"/>
    <path d="M57.5925 2.79956V18.2834M49.8506 3.69979L54.1636 3.69979M49.8506 6.04037H52.0109" stroke="black"/>
    <path d="M47.5 15.879V1H55.3899C56.711 1 57.5917 1.54435 57.5917 2.81452C57.5917 1.54435 58.3257 1 59.7936 1H67.5V15.879H59.7936C58.1422 15.879 57.5917 17.5121 57.5917 18.4194C57.5917 17.5121 56.8578 15.879 55.0229 15.879H47.5Z" stroke="black"/>
    <path d="M80.5925 2.79956V18.2834M72.8506 3.69979L77.1636 3.69979M72.8506 6.04037H77.7721" stroke="black"/>
    <path d="M70.5 15.879V1H78.3899C79.711 1 80.5917 1.54435 80.5917 2.81452C80.5917 1.54435 81.3257 1 82.7936 1H90.5V15.879H82.7936C81.1422 15.879 80.5917 17.5121 80.5917 18.4194C80.5917 17.5121 79.8578 15.879 78.0229 15.879H70.5Z" stroke="black"/>
    <path d="M103.593 2.79956V18.2834M95.8506 3.69979L100.164 3.69979M95.8506 6.04037H101.381M95.8506 8.38096H97.9695" stroke="black"/>
    <path d="M93.5 15.879V1H101.39C102.711 1 103.592 1.54435 103.592 2.81452C103.592 1.54435 104.326 1 105.794 1H113.5V15.879H105.794C104.142 15.879 103.592 17.5121 103.592 18.4194C103.592 17.5121 102.858 15.879 101.023 15.879H93.5Z" stroke="black"/>
    <path d="M126.593 2.79956V18.2834M118.851 3.69979L123.164 3.69979M118.851 6.04037H124.381M118.851 8.38096H123.164" stroke="black"/>
    <path d="M116.5 15.879V1H124.39C125.711 1 126.592 1.54435 126.592 2.81452C126.592 1.54435 127.326 1 128.794 1H136.5V15.879H128.794C127.142 15.879 126.592 17.5121 126.592 18.4194C126.592 17.5121 125.858 15.879 124.023 15.879H116.5Z" stroke="black"/>
    <path d="M149.593 2.79956V18.2834M141.851 3.69979L146.164 3.69979M141.851 6.04037H147.381M141.851 8.38096L146.772 8.38096M141.851 10.7215H142.411" stroke="black"/>
    <path d="M139.5 15.879V1H147.39C148.711 1 149.592 1.54435 149.592 2.81452C149.592 1.54435 150.326 1 151.794 1H159.5V15.879H151.794C150.142 15.879 149.592 17.5121 149.592 18.4194C149.592 17.5121 148.858 15.879 147.023 15.879H139.5Z" stroke="black"/>
    <path d="M172.593 2.79956V18.2834M164.851 3.69979L169.164 3.69979M164.851 6.04037H170.381M164.851 8.38096L169.772 8.38096M164.851 10.7215H168.458" stroke="black"/>
    <path d="M162.5 15.879V1H170.39C171.711 1 172.592 1.54435 172.592 2.81452C172.592 1.54435 173.326 1 174.794 1H182.5V15.879H174.794C173.142 15.879 172.592 17.5121 172.592 18.4194C172.592 17.5121 171.858 15.879 170.023 15.879H162.5Z" stroke="black"/>
    <path d="M195.593 2.79956V18.2834M187.851 3.69979L192.164 3.69979M187.851 6.04037H193.381M187.851 8.38096L192.772 8.38096M187.851 10.7215H193.381M187.851 12.8821H189.381" stroke="black"/>
    <path d="M185.5 15.879V1H193.39C194.711 1 195.592 1.54435 195.592 2.81452C195.592 1.54435 196.326 1 197.794 1H205.5V15.879H197.794C196.142 15.879 195.592 17.5121 195.592 18.4194C195.592 17.5121 194.858 15.879 193.023 15.879H185.5Z" stroke="black"/>
    <path d="M218.593 2.79956V18.2834M210.851 3.69979L215.164 3.69979M210.851 6.04037H216.381M210.851 8.38096L215.772 8.38096M210.851 10.7215H216.381M210.851 12.8821L214.458 12.8821" stroke="black"/>
    <path d="M208.5 15.879V1H216.39C217.711 1 218.592 1.54435 218.592 2.81452C218.592 1.54435 219.326 1 220.794 1H228.5V15.879H220.794C219.142 15.879 218.592 17.5121 218.592 18.4194C218.592 17.5121 217.858 15.879 216.023 15.879H208.5Z" stroke="black"/>
    <path d="M241.593 2.79956V18.2834M243.805 3.69979L245.456 3.69979M233.851 3.69979L238.164 3.69979M233.851 6.04037H239.381M233.851 8.38096L238.772 8.38096M233.851 10.7215H239.381M233.851 12.8821L237.458 12.8821" stroke="black"/>
    <path d="M231.5 15.879V1H239.39C240.711 1 241.592 1.54435 241.592 2.81452C241.592 1.54435 242.326 1 243.794 1H251.5V15.879H243.794C242.142 15.879 241.592 17.5121 241.592 18.4194C241.592 17.5121 240.858 15.879 239.023 15.879H231.5Z" stroke="black"/>
    <path d="M264.593 2.79956V18.2834M266.805 3.69979L271.382 3.69979M256.851 3.69979L261.164 3.69979M256.851 6.04037H262.381M256.851 8.38096L261.772 8.38096M256.851 10.7215H262.381M256.851 12.8821L260.458 12.8821" stroke="black"/>
    <path d="M254.5 15.879V1H262.39C263.711 1 264.592 1.54435 264.592 2.81452C264.592 1.54435 265.326 1 266.794 1H274.5V15.879H266.794C265.142 15.879 264.592 17.5121 264.592 18.4194C264.592 17.5121 263.858 15.879 262.023 15.879H254.5Z" stroke="black"/>
    <path d="M287.593 2.79956V18.2834M289.805 3.69979H295.334M289.805 6.04037H291.414M279.851 3.69979L284.164 3.69979M279.851 6.04037H285.381M279.851 8.38096L284.772 8.38096M279.851 10.7215H285.381M279.851 12.8821L283.458 12.8821" stroke="black"/>
    <path d="M277.5 15.879V1H285.39C286.711 1 287.592 1.54435 287.592 2.81452C287.592 1.54435 288.326 1 289.794 1H297.5V15.879H289.794C288.142 15.879 287.592 17.5121 287.592 18.4194C287.592 17.5121 286.858 15.879 285.023 15.879H277.5Z" stroke="black"/>
    <path d="M310.593 2.79956V18.2834M312.805 3.69979H318.334M312.805 6.04037H316.371M302.851 3.69979L307.164 3.69979M302.851 6.04037H308.381M302.851 8.38096L307.772 8.38096M302.851 10.7215H308.381M302.851 12.8821L306.458 12.8821" stroke="black"/>
    <path d="M300.5 15.879V1H308.39C309.711 1 310.592 1.54435 310.592 2.81452C310.592 1.54435 311.326 1 312.794 1H320.5V15.879H312.794C311.142 15.879 310.592 17.5121 310.592 18.4194C310.592 17.5121 309.858 15.879 308.023 15.879H300.5Z" stroke="black"/>
    <path d="M333.593 2.79956V18.2834M335.805 3.69979H341.334M335.805 6.04037L340.382 6.04037M335.805 8.38096L337.879 8.38096M325.851 3.69979L330.164 3.69979M325.851 6.04037H331.381M325.851 8.38096L330.772 8.38096M325.851 10.7215H331.381M325.851 12.8821L329.458 12.8821" stroke="black"/>
    <path d="M323.5 15.879V1H331.39C332.711 1 333.592 1.54435 333.592 2.81452C333.592 1.54435 334.326 1 335.794 1H343.5V15.879H335.794C334.142 15.879 333.592 17.5121 333.592 18.4194C333.592 17.5121 332.858 15.879 331.023 15.879H323.5Z" stroke="black"/>
    <path d="M356.593 2.79956V18.2834M358.805 3.69979H364.334M358.805 6.04037L363.382 6.04037M358.805 8.38096L363.382 8.38096M348.851 3.69979L353.164 3.69979M348.851 6.04037H354.381M348.851 8.38096L353.772 8.38096M348.851 10.7215H354.381M348.851 12.8821L352.458 12.8821" stroke="black"/>
    <path d="M346.5 15.879V1H354.39C355.711 1 356.592 1.54435 356.592 2.81452C356.592 1.54435 357.326 1 358.794 1H366.5V15.879H358.794C357.142 15.879 356.592 17.5121 356.592 18.4194C356.592 17.5121 355.858 15.879 354.023 15.879H346.5Z" stroke="black"/>
    <path d="M379.593 2.79956V18.2834M381.805 3.69979H387.334M381.805 6.04037L386.382 6.04037M381.805 8.38096H387.334M381.805 10.7215H383.332M371.851 3.69979L376.164 3.69979M371.851 6.04037H377.381M371.851 8.38096L376.772 8.38096M371.851 10.7215H377.381M371.851 12.8821L375.458 12.8821" stroke="black"/>
    <path d="M369.5 15.879V1H377.39C378.711 1 379.592 1.54435 379.592 2.81452C379.592 1.54435 380.326 1 381.794 1H389.5V15.879H381.794C380.142 15.879 379.592 17.5121 379.592 18.4194C379.592 17.5121 378.858 15.879 377.023 15.879H369.5Z" stroke="black"/>
    <path d="M402.593 2.79956V18.2834M404.805 3.69979H410.334M404.805 6.04037L409.382 6.04037M404.805 8.38096H410.334M404.805 10.7215H408.081M394.851 3.69979L399.164 3.69979M394.851 6.04037H400.381M394.851 8.38096L399.772 8.38096M394.851 10.7215H400.381M394.851 12.8821L398.458 12.8821" stroke="black"/>
    <path d="M392.5 15.879V1H400.39C401.711 1 402.592 1.54435 402.592 2.81452C402.592 1.54435 403.326 1 404.794 1H412.5V15.879H404.794C403.142 15.879 402.592 17.5121 402.592 18.4194C402.592 17.5121 401.858 15.879 400.023 15.879H392.5Z" stroke="black"/>
    <path d="M425.593 2.79956V18.2834M427.805 3.69979H433.334M427.805 6.04037L432.382 6.04037M427.805 8.38096H433.334M427.805 10.7215L431.371 10.7215M427.805 12.8821H430.302M417.851 3.69979L422.164 3.69979M417.851 6.04037H423.381M417.851 8.38096L422.772 8.38096M417.851 10.7215H423.381M417.851 12.8821L421.458 12.8821" stroke="black"/>
    <path d="M415.5 15.879V1H423.39C424.711 1 425.592 1.54435 425.592 2.81452C425.592 1.54435 426.326 1 427.794 1H435.5V15.879H427.794C426.142 15.879 425.592 17.5121 425.592 18.4194C425.592 17.5121 424.858 15.879 423.023 15.879H415.5Z" stroke="black"/>
    <path d="M448.593 2.79956V18.2834M450.805 3.69979H456.334M450.805 6.04037L455.382 6.04037M450.805 8.38096H456.334M450.805 10.7215L454.371 10.7215M450.805 12.8821H456.334M440.851 3.69979L445.164 3.69979M440.851 6.04037H446.381M440.851 8.38096L445.772 8.38096M440.851 10.7215H446.381M440.851 12.8821L444.458 12.8821" stroke="black"/>
    <path d="M438.5 15.879V1H446.39C447.711 1 448.592 1.54435 448.592 2.81452C448.592 1.54435 449.326 1 450.794 1H458.5V15.879H450.794C449.142 15.879 448.592 17.5121 448.592 18.4194C448.592 17.5121 447.858 15.879 446.023 15.879H438.5Z" stroke="black"/>
</svg>
