<svg width="780" height="33" viewBox="0 0 780 33" fill="none" xmlns="http://www.w3.org/2000/svg">
    <path d="M19.6619 5.09924V31.7659M6.11353 6.64963H9.08127" stroke="black" stroke-width="2"/>
    <path d="M2 27.625V2H15.8073C18.1193 2 19.6606 2.9375 19.6606 5.125C19.6606 2.9375 20.945 2 23.5138 2H37V27.625H23.5138C20.6239 27.625 19.6606 30.4375 19.6606 32C19.6606 30.4375 18.3761 27.625 15.1651 27.625H2Z" stroke="black" stroke-width="2"/>
    <path d="M58.6619 5.09924V31.7659M45.1135 6.64963H51.4264" stroke="black" stroke-width="2"/>
    <path d="M41 27.625V2H54.8073C57.1193 2 58.6606 2.9375 58.6606 5.125C58.6606 2.9375 59.945 2 62.5138 2H76V27.625H62.5138C59.6239 27.625 58.6606 30.4375 58.6606 32C58.6606 30.4375 57.3761 27.625 54.1651 27.625H41Z" stroke="black" stroke-width="2"/>
    <path d="M97.6619 5.09924V31.7659M84.1135 6.64963L91.6613 6.64963M84.1135 10.6806H87.894" stroke="black" stroke-width="2"/>
    <path d="M80 27.625V2H93.8073C96.1193 2 97.6606 2.9375 97.6606 5.125C97.6606 2.9375 98.945 2 101.514 2H115V27.625H101.514C98.6239 27.625 97.6606 30.4375 97.6606 32C97.6606 30.4375 96.3761 27.625 93.1651 27.625H80Z" stroke="black" stroke-width="2"/>
    <path d="M136.662 5.09924V31.7659M123.114 6.64963L130.661 6.64963M123.114 10.6806H131.726" stroke="black" stroke-width="2"/>
    <path d="M119 27.625V2H132.807C135.119 2 136.661 2.9375 136.661 5.125C136.661 2.9375 137.945 2 140.514 2H154V27.625H140.514C137.624 27.625 136.661 30.4375 136.661 32C136.661 30.4375 135.376 27.625 132.165 27.625H119Z" stroke="black" stroke-width="2"/>
    <path d="M175.662 5.09924V31.7659M162.114 6.64963L169.661 6.64963M162.114 10.6806H171.791M162.114 14.7116H165.822" stroke="black" stroke-width="2"/>
    <path d="M158 27.625V2H171.807C174.119 2 175.661 2.9375 175.661 5.125C175.661 2.9375 176.945 2 179.514 2H193V27.625H179.514C176.624 27.625 175.661 30.4375 175.661 32C175.661 30.4375 174.376 27.625 171.165 27.625H158Z" stroke="black" stroke-width="2"/>
    <path d="M214.662 5.09924V31.7659M201.114 6.64963L208.661 6.64963M201.114 10.6806H210.791M201.114 14.7116H208.661" stroke="black" stroke-width="2"/>
    <path d="M197 27.625V2H210.807C213.119 2 214.661 2.9375 214.661 5.125C214.661 2.9375 215.945 2 218.514 2H232V27.625H218.514C215.624 27.625 214.661 30.4375 214.661 32C214.661 30.4375 213.376 27.625 210.165 27.625H197Z" stroke="black" stroke-width="2"/>
    <path d="M253.662 5.09924V31.7659M240.114 6.64963L247.661 6.64963M240.114 10.6806H249.791M240.114 14.7116L248.726 14.7116M240.114 18.7427H241.094" stroke="black" stroke-width="2"/>
    <path d="M236 27.625V2H249.807C252.119 2 253.661 2.9375 253.661 5.125C253.661 2.9375 254.945 2 257.514 2H271V27.625H257.514C254.624 27.625 253.661 30.4375 253.661 32C253.661 30.4375 252.376 27.625 249.165 27.625H236Z" stroke="black" stroke-width="2"/>
    <path d="M292.662 5.09924V31.7659M279.114 6.64963L286.661 6.64963M279.114 10.6806H288.791M279.114 14.7116L287.726 14.7116M279.114 18.7427H285.426" stroke="black" stroke-width="2"/>
    <path d="M275 27.625V2H288.807C291.119 2 292.661 2.9375 292.661 5.125C292.661 2.9375 293.945 2 296.514 2H310V27.625H296.514C293.624 27.625 292.661 30.4375 292.661 32C292.661 30.4375 291.376 27.625 288.165 27.625H275Z" stroke="black" stroke-width="2"/>
    <path d="M331.662 5.09924V31.7659M318.114 6.64963L325.661 6.64963M318.114 10.6806H327.791M318.114 14.7116L326.726 14.7116M318.114 18.7427H327.791M318.114 22.4636H320.792" stroke="black" stroke-width="2"/>
    <path d="M314 27.625V2H327.807C330.119 2 331.661 2.9375 331.661 5.125C331.661 2.9375 332.945 2 335.514 2H349V27.625H335.514C332.624 27.625 331.661 30.4375 331.661 32C331.661 30.4375 330.376 27.625 327.165 27.625H314Z" stroke="black" stroke-width="2"/>
    <path d="M370.662 5.09924V31.7659M357.114 6.64963L364.661 6.64963M357.114 10.6806H366.791M357.114 14.7116L365.726 14.7116M357.114 18.7427H366.791M357.114 22.4636L363.426 22.4636" stroke="black" stroke-width="2"/>
    <path d="M353 27.625V2H366.807C369.119 2 370.661 2.9375 370.661 5.125C370.661 2.9375 371.945 2 374.514 2H388V27.625H374.514C371.624 27.625 370.661 30.4375 370.661 32C370.661 30.4375 369.376 27.625 366.165 27.625H353Z" stroke="black" stroke-width="2"/>
    <path d="M409.662 5.09924V31.7659M413.533 6.64963L416.422 6.64963M396.114 6.64963L403.661 6.64963M396.114 10.6806H405.791M396.114 14.7116L404.726 14.7116M396.114 18.7427H405.791M396.114 22.4636L402.426 22.4636" stroke="black" stroke-width="2"/>
    <path d="M392 27.625V2H405.807C408.119 2 409.661 2.9375 409.661 5.125C409.661 2.9375 410.945 2 413.514 2H427V27.625H413.514C410.624 27.625 409.661 30.4375 409.661 32C409.661 30.4375 408.376 27.625 405.165 27.625H392Z" stroke="black" stroke-width="2"/>
    <path d="M448.662 5.09924V31.7659M452.533 6.64963L460.544 6.64963M435.114 6.64963L442.661 6.64963M435.114 10.6806H444.791M435.114 14.7116L443.726 14.7116M435.114 18.7427H444.791M435.114 22.4636L441.426 22.4636" stroke="black" stroke-width="2"/>
    <path d="M431 27.625V2H444.807C447.119 2 448.661 2.9375 448.661 5.125C448.661 2.9375 449.945 2 452.514 2H466V27.625H452.514C449.624 27.625 448.661 30.4375 448.661 32C448.661 30.4375 447.376 27.625 444.165 27.625H431Z" stroke="black" stroke-width="2"/>
    <path d="M487.662 5.09924V31.7659M491.533 6.64963H501.21M491.533 10.6806H494.35M474.114 6.64963L481.661 6.64963M474.114 10.6806H483.791M474.114 14.7116L482.726 14.7116M474.114 18.7427H483.791M474.114 22.4636L480.426 22.4636" stroke="black" stroke-width="2"/>
    <path d="M470 27.625V2H483.807C486.119 2 487.661 2.9375 487.661 5.125C487.661 2.9375 488.945 2 491.514 2H505V27.625H491.514C488.624 27.625 487.661 30.4375 487.661 32C487.661 30.4375 486.376 27.625 483.165 27.625H470Z" stroke="black" stroke-width="2"/>
    <path d="M526.662 5.09924V31.7659M530.533 6.64963H540.21M530.533 10.6806H536.774M513.114 6.64963L520.661 6.64963M513.114 10.6806H522.791M513.114 14.7116L521.726 14.7116M513.114 18.7427H522.791M513.114 22.4636L519.426 22.4636" stroke="black" stroke-width="2"/>
    <path d="M509 27.625V2H522.807C525.119 2 526.661 2.9375 526.661 5.125C526.661 2.9375 527.945 2 530.514 2H544V27.625H530.514C527.624 27.625 526.661 30.4375 526.661 32C526.661 30.4375 525.376 27.625 522.165 27.625H509Z" stroke="black" stroke-width="2"/>
    <path d="M565.662 5.09924V31.7659M569.533 6.64963H579.21M569.533 10.6806L577.544 10.6806M569.533 14.7116L573.163 14.7116M552.114 6.64963L559.661 6.64963M552.114 10.6806H561.791M552.114 14.7116L560.726 14.7116M552.114 18.7427H561.791M552.114 22.4636L558.426 22.4636" stroke="black" stroke-width="2"/>
    <path d="M548 27.625V2H561.807C564.119 2 565.661 2.9375 565.661 5.125C565.661 2.9375 566.945 2 569.514 2H583V27.625H569.514C566.624 27.625 565.661 30.4375 565.661 32C565.661 30.4375 564.376 27.625 561.165 27.625H548Z" stroke="black" stroke-width="2"/>
    <path d="M604.662 5.09924V31.7659M608.533 6.64963H618.21M608.533 10.6806L616.544 10.6806M608.533 14.7116L616.544 14.7116M591.114 6.64963L598.661 6.64963M591.114 10.6806H600.791M591.114 14.7116L599.726 14.7116M591.114 18.7427H600.791M591.114 22.4636L597.426 22.4636" stroke="black" stroke-width="2"/>
    <path d="M587 27.625V2H600.807C603.119 2 604.661 2.9375 604.661 5.125C604.661 2.9375 605.945 2 608.514 2H622V27.625H608.514C605.624 27.625 604.661 30.4375 604.661 32C604.661 30.4375 603.376 27.625 600.165 27.625H587Z" stroke="black" stroke-width="2"/>
    <path d="M643.662 5.09924V31.7659M647.533 6.64963H657.21M647.533 10.6806L655.544 10.6806M647.533 14.7116H657.21M647.533 18.7427H650.205M630.114 6.64963L637.661 6.64963M630.114 10.6806H639.791M630.114 14.7116L638.726 14.7116M630.114 18.7427H639.791M630.114 22.4636L636.426 22.4636" stroke="black" stroke-width="2"/>
    <path d="M626 27.625V2H639.807C642.119 2 643.661 2.9375 643.661 5.125C643.661 2.9375 644.945 2 647.514 2H661V27.625H647.514C644.624 27.625 643.661 30.4375 643.661 32C643.661 30.4375 642.376 27.625 639.165 27.625H626Z" stroke="black" stroke-width="2"/>
    <path d="M682.662 5.09924V31.7659M686.533 6.64963H696.21M686.533 10.6806L694.544 10.6806M686.533 14.7116H696.21M686.533 18.7427H692.267M669.114 6.64963L676.661 6.64963M669.114 10.6806H678.791M669.114 14.7116L677.726 14.7116M669.114 18.7427H678.791M669.114 22.4636L675.426 22.4636" stroke="black" stroke-width="2"/>
    <path d="M665 27.625V2H678.807C681.119 2 682.661 2.9375 682.661 5.125C682.661 2.9375 683.945 2 686.514 2H700V27.625H686.514C683.624 27.625 682.661 30.4375 682.661 32C682.661 30.4375 681.376 27.625 678.165 27.625H665Z" stroke="black" stroke-width="2"/>
    <path d="M721.662 5.09924V31.7659M725.533 6.64963H735.21M725.533 10.6806L733.544 10.6806M725.533 14.7116H735.21M725.533 18.7427L731.774 18.7427M725.533 22.4636H729.903M708.114 6.64963L715.661 6.64963M708.114 10.6806H717.791M708.114 14.7116L716.726 14.7116M708.114 18.7427H717.791M708.114 22.4636L714.426 22.4636" stroke="black" stroke-width="2"/>
    <path d="M704 27.625V2H717.807C720.119 2 721.661 2.9375 721.661 5.125C721.661 2.9375 722.945 2 725.514 2H739V27.625H725.514C722.624 27.625 721.661 30.4375 721.661 32C721.661 30.4375 720.376 27.625 717.165 27.625H704Z" stroke="black" stroke-width="2"/>
    <path d="M760.662 5.09924V31.7659M764.533 6.64963H774.21M764.533 10.6806L772.544 10.6806M764.533 14.7116H774.21M764.533 18.7427L770.774 18.7427M764.533 22.4636H774.21M747.114 6.64963L754.661 6.64963M747.114 10.6806H756.791M747.114 14.7116L755.726 14.7116M747.114 18.7427H756.791M747.114 22.4636L753.426 22.4636" stroke="black" stroke-width="2"/>
    <path d="M743 27.625V2H756.807C759.119 2 760.661 2.9375 760.661 5.125C760.661 2.9375 761.945 2 764.514 2H778V27.625H764.514C761.624 27.625 760.661 30.4375 760.661 32C760.661 30.4375 759.376 27.625 756.165 27.625H743Z" stroke="black" stroke-width="2"/>
</svg>
