<svg width="682.5" height="30" viewBox="0 0 455 20" fill="none" xmlns="http://www.w3.org/2000/svg">
    <path d="M10.9767 2.77893V18.0851M3.32361 3.66882H5" stroke="black"/>
    <path d="M1 15.7083V1H8.79935C10.1053 1 10.9759 1.53811 10.9759 2.79369C10.9759 1.53811 11.7014 1 13.1525 1H20.7704V15.7083H13.1525C11.5201 15.7083 10.9759 17.3226 10.9759 18.2194C10.9759 17.3226 10.2504 15.7083 8.43659 15.7083H1Z" stroke="black"/>
    <path d="M33.7472 2.77893V18.0851M26.0941 3.66882H29.66" stroke="black"/>
    <path d="M23.7705 15.7083V1H31.5699C32.8758 1 33.7464 1.53811 33.7464 2.79369C33.7464 1.53811 34.4719 1 35.923 1H43.541V15.7083H35.923C34.2906 15.7083 33.7464 17.3226 33.7464 18.2194C33.7464 17.3226 33.0209 15.7083 31.2071 15.7083H23.7705Z" stroke="black"/>
    <path d="M56.5176 2.77893V18.0851M48.8645 3.66882L53.128 3.66882M48.8645 5.98254H51" stroke="black"/>
    <path d="M46.5409 15.7083V1H54.3402C55.6462 1 56.5168 1.53811 56.5168 2.79369C56.5168 1.53811 57.2423 1 58.6934 1H66.3113V15.7083H58.6934C57.0609 15.7083 56.5168 17.3226 56.5168 18.2194C56.5168 17.3226 55.7913 15.7083 53.9775 15.7083H46.5409Z" stroke="black"/>
    <path d="M79.2881 2.77893V18.0851M71.635 3.66882L75.8985 3.66882M71.635 5.98254H76.5" stroke="black"/>
    <path d="M69.3114 15.7083V1H77.1108C78.4167 1 79.2873 1.53811 79.2873 2.79369C79.2873 1.53811 80.0128 1 81.4639 1H89.0819V15.7083H81.4639C79.8315 15.7083 79.2873 17.3226 79.2873 18.2194C79.2873 17.3226 78.5618 15.7083 76.748 15.7083H69.3114Z" stroke="black"/>
    <path d="M102.058 2.77893V18.0851M94.4054 3.66882L98.6689 3.66882M94.4054 5.98254H99.8719M94.4054 8.29627H96.5" stroke="black"/>
    <path d="M92.0818 15.7083V1H99.8811C101.187 1 102.058 1.53811 102.058 2.79369C102.058 1.53811 102.783 1 104.234 1H111.852V15.7083H104.234C102.602 15.7083 102.058 17.3226 102.058 18.2194C102.058 17.3226 101.332 15.7083 99.5184 15.7083H92.0818Z" stroke="black"/>
    <path d="M124.829 2.77893V18.0851M117.176 3.66882L121.439 3.66882M117.176 5.98254H122.642M117.176 8.29627H121.439" stroke="black"/>
    <path d="M114.852 15.7083V1H122.652C123.958 1 124.828 1.53811 124.828 2.79369C124.828 1.53811 125.554 1 127.005 1H134.623V15.7083H127.005C125.372 15.7083 124.828 17.3226 124.828 18.2194C124.828 17.3226 124.103 15.7083 122.289 15.7083H114.852Z" stroke="black"/>
    <path d="M147.599 2.77893V18.0851M139.946 3.66882L144.21 3.66882M139.946 5.98254H145.413M139.946 8.29627L144.811 8.29627M139.946 10.61H140.5" stroke="black"/>
    <path d="M137.623 15.7083V1H145.422C146.728 1 147.599 1.53811 147.599 2.79369C147.599 1.53811 148.324 1 149.775 1H157.393V15.7083H149.775C148.143 15.7083 147.599 17.3226 147.599 18.2194C147.599 17.3226 146.873 15.7083 145.059 15.7083H137.623Z" stroke="black"/>
    <path d="M170.37 2.77893V18.0851M162.717 3.66882L166.98 3.66882M162.717 5.98254H168.183M162.717 8.29627L167.582 8.29627M162.717 10.61H166.283" stroke="black"/>
    <path d="M160.393 15.7083V1H168.193C169.498 1 170.369 1.53811 170.369 2.79369C170.369 1.53811 171.095 1 172.546 1H180.164V15.7083H172.546C170.913 15.7083 170.369 17.3226 170.369 18.2194C170.369 17.3226 169.644 15.7083 167.83 15.7083H160.393Z" stroke="black"/>
    <path d="M193.14 2.77893V18.0851M185.487 3.66882L189.751 3.66882M185.487 5.98254H190.954M185.487 8.29627L190.352 8.29627M185.487 10.61H190.954M185.487 12.7457H187" stroke="black"/>
    <path d="M183.164 15.7083V1H190.963C192.269 1 193.139 1.53811 193.139 2.79369C193.139 1.53811 193.865 1 195.316 1H202.934V15.7083H195.316C193.684 15.7083 193.139 17.3226 193.139 18.2194C193.139 17.3226 192.414 15.7083 190.6 15.7083H183.164Z" stroke="black"/>
    <path d="M215.911 2.77893V18.0851M208.258 3.66882L212.521 3.66882M208.258 5.98254H213.724M208.258 8.29627L213.123 8.29627M208.258 10.61H213.724M208.258 12.7457L211.824 12.7457" stroke="black"/>
    <path d="M205.934 15.7083V1H213.733C215.039 1 215.91 1.53811 215.91 2.79369C215.91 1.53811 216.635 1 218.086 1H225.704V15.7083H218.086C216.454 15.7083 215.91 17.3226 215.91 18.2194C215.91 17.3226 215.184 15.7083 213.371 15.7083H205.934Z" stroke="black"/>
    <path d="M238.681 2.77893V18.0851M240.868 3.66882L242.5 3.66882M231.028 3.66882L235.292 3.66882M231.028 5.98254H236.495M231.028 8.29627L235.893 8.29627M231.028 10.61H236.495M231.028 12.7457L234.594 12.7457" stroke="black"/>
    <path d="M228.704 15.7083V1H236.504C237.81 1 238.68 1.53811 238.68 2.79369C238.68 1.53811 239.406 1 240.857 1H248.475V15.7083H240.857C239.225 15.7083 238.68 17.3226 238.68 18.2194C238.68 17.3226 237.955 15.7083 236.141 15.7083H228.704Z" stroke="black"/>
    <path d="M261.452 2.77893V18.0851M263.638 3.66882L268.164 3.66882M253.799 3.66882L258.062 3.66882M253.799 5.98254H259.265M253.799 8.29627L258.664 8.29627M253.799 10.61H259.265M253.799 12.7457L257.364 12.7457" stroke="black"/>
    <path d="M251.475 15.7083V1H259.274C260.58 1 261.451 1.53811 261.451 2.79369C261.451 1.53811 262.176 1 263.627 1H271.245V15.7083H263.627C261.995 15.7083 261.451 17.3226 261.451 18.2194C261.451 17.3226 260.725 15.7083 258.912 15.7083H251.475Z" stroke="black"/>
    <path d="M284.222 2.77893V18.0851M286.409 3.66882H291.875M286.409 5.98254H288M276.569 3.66882L280.832 3.66882M276.569 5.98254H282.035M276.569 8.29627L281.434 8.29627M276.569 10.61H282.035M276.569 12.7457L280.135 12.7457" stroke="black"/>
    <path d="M274.245 15.7083V1H282.045C283.351 1 284.221 1.53811 284.221 2.79369C284.221 1.53811 284.947 1 286.398 1H294.016V15.7083H286.398C284.765 15.7083 284.221 17.3226 284.221 18.2194C284.221 17.3226 283.496 15.7083 281.682 15.7083H274.245Z" stroke="black"/>
    <path d="M306.993 2.77893V18.0851M309.179 3.66882H314.646M309.179 5.98254H312.704M299.339 3.66882L303.603 3.66882M299.339 5.98254H304.806M299.339 8.29627L304.204 8.29627M299.339 10.61H304.806M299.339 12.7457L302.905 12.7457" stroke="black"/>
    <path d="M297.016 15.7083V1H304.815C306.121 1 306.992 1.53811 306.992 2.79369C306.992 1.53811 307.717 1 309.168 1H316.786V15.7083H309.168C307.536 15.7083 306.992 17.3226 306.992 18.2194C306.992 17.3226 306.266 15.7083 304.452 15.7083H297.016Z" stroke="black"/>
    <path d="M329.763 2.77893V18.0851M331.95 3.66882H337.416M331.95 5.98254L336.475 5.98254M331.95 8.29627L334 8.29627M322.11 3.66882L326.373 3.66882M322.11 5.98254H327.576M322.11 8.29627L326.975 8.29627M322.11 10.61H327.576M322.11 12.7457L325.676 12.7457" stroke="black"/>
    <path d="M319.786 15.7083V1H327.586C328.892 1 329.762 1.53811 329.762 2.79369C329.762 1.53811 330.488 1 331.939 1H339.557V15.7083H331.939C330.306 15.7083 329.762 17.3226 329.762 18.2194C329.762 17.3226 329.037 15.7083 327.223 15.7083H319.786Z" stroke="black"/>
    <path d="M352.533 2.77893V18.0851M354.72 3.66882H360.187M354.72 5.98254L359.245 5.98254M354.72 8.29627L359.245 8.29627M344.88 3.66882L349.144 3.66882M344.88 5.98254H350.347M344.88 8.29627L349.745 8.29627M344.88 10.61H350.347M344.88 12.7457L348.446 12.7457" stroke="black"/>
    <path d="M342.557 15.7083V1H350.356C351.662 1 352.533 1.53811 352.533 2.79369C352.533 1.53811 353.258 1 354.709 1H362.327V15.7083H354.709C353.077 15.7083 352.533 17.3226 352.533 18.2194C352.533 17.3226 351.807 15.7083 349.993 15.7083H342.557Z" stroke="black"/>
    <path d="M375.304 2.77893V18.0851M377.49 3.66882H382.957M377.49 5.98254L382.016 5.98254M377.49 8.29627H382.957M377.49 10.61H379M367.651 3.66882L371.914 3.66882M367.651 5.98254H373.117M367.651 8.29627L372.516 8.29627M367.651 10.61H373.117M367.651 12.7457L371.217 12.7457" stroke="black"/>
    <path d="M365.327 15.7083V1H373.126C374.432 1 375.303 1.53811 375.303 2.79369C375.303 1.53811 376.029 1 377.48 1H385.098V15.7083H377.48C375.847 15.7083 375.303 17.3226 375.303 18.2194C375.303 17.3226 374.578 15.7083 372.764 15.7083H365.327Z" stroke="black"/>
    <path d="M398.074 2.77893V18.0851M400.261 3.66882H405.727M400.261 5.98254L404.786 5.98254M400.261 8.29627H405.727M400.261 10.61H403.5M390.421 3.66882L394.685 3.66882M390.421 5.98254H395.888M390.421 8.29627L395.286 8.29627M390.421 10.61H395.888M390.421 12.7457L393.987 12.7457" stroke="black"/>
    <path d="M388.098 15.7083V1H395.897C397.203 1 398.074 1.53811 398.074 2.79369C398.074 1.53811 398.799 1 400.25 1H407.868V15.7083H400.25C398.618 15.7083 398.074 17.3226 398.074 18.2194C398.074 17.3226 397.348 15.7083 395.534 15.7083H388.098Z" stroke="black"/>
    <path d="M420.845 2.77893V18.0851M423.031 3.66882H428.498M423.031 5.98254L427.557 5.98254M423.031 8.29627H428.498M423.031 10.61L426.557 10.61M423.031 12.7457H425.5M413.192 3.66882L417.455 3.66882M413.192 5.98254H418.658M413.192 8.29627L418.057 8.29627M413.192 10.61H418.658M413.192 12.7457L416.758 12.7457" stroke="black"/>
    <path d="M410.868 15.7083V1H418.667C419.973 1 420.844 1.53811 420.844 2.79369C420.844 1.53811 421.569 1 423.021 1H430.638V15.7083H423.021C421.388 15.7083 420.844 17.3226 420.844 18.2194C420.844 17.3226 420.118 15.7083 418.305 15.7083H410.868Z" stroke="black"/>
    <path d="M443.615 2.77893V18.0851M445.802 3.66882H451.268M445.802 5.98254L450.327 5.98254M445.802 8.29627H451.268M445.802 10.61L449.327 10.61M445.802 12.7457H451.268M435.962 3.66882L440.226 3.66882M435.962 5.98254H441.429M435.962 8.29627L440.827 8.29627M435.962 10.61H441.429M435.962 12.7457L439.528 12.7457" stroke="black"/>
    <path d="M433.639 15.7083V1H441.438C442.744 1 443.614 1.53811 443.614 2.79369C443.614 1.53811 444.34 1 445.791 1H453.409V15.7083H445.791C444.159 15.7083 443.614 17.3226 443.614 18.2194C443.614 17.3226 442.889 15.7083 441.075 15.7083H433.639Z" stroke="black"/>
</svg>
